<?xml version="1.0" standalone="no"?>
<!DOCTYPE svg PUBLIC "-//W3C//DTD SVG 20010904//EN"
 "http://www.w3.org/TR/2001/REC-SVG-20010904/DTD/svg10.dtd">
<svg version="1.0" xmlns="http://www.w3.org/2000/svg"
 width="505.000000pt" height="494.000000pt" viewBox="0 0 505.000000 494.000000"
 preserveAspectRatio="xMidYMid meet">

<g transform="translate(0.000000,494.000000) scale(0.100000,-0.100000)"
fill="#000000" stroke="none">
<path d="M2960 4564 c-14 -3 -53 -11 -88 -20 -49 -13 -72 -14 -105 -6 -66 17
-145 25 -127 13 8 -6 29 -11 45 -11 17 0 54 -6 84 -14 38 -10 64 -11 94 -4
135 32 394 -2 542 -71 179 -84 355 -273 415 -449 8 -23 8 -24 -3 -8 -27 41
-108 146 -112 146 -3 0 9 -28 26 -62 31 -61 69 -161 69 -181 0 -6 -12 12 -26
39 -28 55 -107 175 -111 170 -2 -1 6 -29 18 -62 24 -70 49 -193 48 -237 0 -24
-7 -11 -28 53 -15 47 -38 105 -52 130 l-24 45 -6 -85 c-6 -85 -33 -185 -69
-250 -23 -43 -24 -42 -5 45 8 39 15 85 15 104 l0 34 -41 -58 c-22 -32 -86
-108 -143 -169 -139 -151 -176 -209 -261 -411 -187 -442 -299 -875 -312 -1205
-11 -296 47 -531 188 -754 57 -92 144 -203 171 -220 39 -24 26 8 -46 111 -95
138 -185 311 -225 431 -126 380 -59 867 208 1511 117 282 135 319 192 392 80
103 229 253 229 231 0 -20 -43 -158 -61 -196 -6 -12 3 -6 21 14 49 54 110 164
146 259 30 78 33 84 42 61 10 -26 36 -134 50 -210 l9 -45 7 65 c4 36 6 107 4
158 -1 50 0 92 3 92 5 0 43 -78 82 -170 22 -50 21 -14 -3 100 -10 52 -18 95
-17 97 2 1 20 -28 40 -65 42 -76 41 -56 -4 77 -87 253 -261 439 -499 534 -106
41 -283 65 -380 51z"/>
<path d="M2485 4536 l-40 -13 43 -8 43 -8 -68 -33 c-37 -19 -88 -52 -113 -74
l-45 -40 50 15 c46 13 206 45 225 45 4 0 -18 -26 -49 -59 -31 -32 -72 -86 -91
-119 l-35 -61 -48 -1 c-27 0 -46 -4 -43 -9 3 -4 -11 -13 -32 -19 -20 -7 -55
-23 -77 -37 l-40 -26 50 6 50 6 -40 -26 c-45 -29 -51 -28 59 -9 l39 7 -26 -35
c-43 -56 -68 -124 -71 -191 l-2 -61 -60 -12 c-175 -36 -396 -155 -634 -344
-118 -93 -447 -418 -561 -555 -114 -136 -231 -297 -283 -390 -53 -95 -117
-245 -110 -257 3 -4 35 17 72 47 459 379 736 562 1212 800 163 82 474 225 488
225 9 0 -8 -170 -28 -290 -67 -390 -239 -884 -393 -1127 -15 -24 -23 -43 -18
-43 4 0 44 23 87 51 107 70 111 70 75 7 -92 -163 -124 -407 -79 -598 l13 -55
5 65 c5 55 7 60 13 35 38 -149 81 -274 91 -264 3 2 1 24 -4 49 -12 64 -5 61
15 -7 18 -63 93 -229 100 -222 2 3 0 22 -5 44 -15 66 -11 72 21 32 20 -24 39
-37 55 -37 13 0 24 2 24 4 0 4 -51 77 -123 176 -18 25 -18 24 -12 -38 8 -85
-7 -74 -39 28 -30 93 -45 181 -47 265 l-2 60 -7 -50 c-5 -27 -9 -77 -10 -110
l-1 -60 -16 40 c-9 24 -18 91 -22 165 l-6 125 -20 -80 -20 -80 -3 89 c-5 149
39 306 128 459 34 59 59 85 132 142 102 80 272 246 352 344 160 195 326 504
326 605 0 19 -9 74 -21 122 -20 84 -20 89 -3 133 10 25 44 89 76 141 41 68 58
105 58 130 0 22 11 51 30 79 87 128 79 321 -20 469 -58 86 -136 140 -236 162
-93 21 -204 -23 -266 -106 -27 -36 -30 -38 -82 -35 -36 2 -66 -3 -87 -14 -18
-10 -46 -19 -63 -21 -29 -4 -30 -4 -12 11 11 8 27 16 35 17 9 0 -6 4 -34 7
l-50 7 44 13 c25 7 59 10 79 6 23 -4 32 -3 27 4 -3 6 -2 11 4 11 5 0 25 28 42
63 21 38 63 92 112 141 l80 79 -79 -6 c-44 -4 -103 -13 -131 -21 -29 -8 -53
-13 -53 -11 0 14 110 64 180 81 85 21 85 21 45 29 -75 13 -83 19 -35 26 l45 6
-45 1 c-25 0 -63 -5 -85 -12z m362 -329 c204 -75 305 -375 187 -554 l-14 -23
-45 34 c-72 55 -174 79 -271 64 -33 -5 -61 -5 -68 0 -6 5 -38 20 -71 32 -47
18 -88 24 -187 28 l-128 5 0 61 c0 145 127 272 238 238 35 -11 38 -10 57 16
56 77 122 112 210 111 33 0 74 -6 92 -12z m-312 -460 c39 -14 96 -36 129 -51
34 -15 53 -20 47 -12 -19 22 3 29 67 21 75 -9 142 -39 183 -81 26 -26 30 -37
21 -46 -7 -7 -12 -17 -12 -23 0 -5 4 -4 9 3 6 10 10 7 13 -13 4 -18 -3 -38
-20 -63 -14 -20 -45 -75 -69 -122 -42 -81 -44 -89 -41 -162 1 -43 5 -78 9 -78
3 0 9 -23 12 -52 6 -46 1 -65 -39 -168 -25 -63 -64 -149 -87 -190 -137 -253
-442 -579 -691 -739 -44 -27 -81 -49 -82 -48 -1 1 26 58 59 127 76 153 159
395 227 660 67 260 98 405 105 490 7 102 17 130 42 130 14 0 15 -13 10 -107
-9 -182 -86 -445 -311 -1067 -20 -55 -36 -104 -36 -110 0 -15 61 47 149 149
296 347 518 756 541 998 10 105 -9 337 -28 337 -3 0 -20 -11 -38 -25 -42 -32
-180 -104 -291 -151 -876 -372 -1354 -647 -1702 -979 -57 -54 -72 -64 -66 -45
19 67 123 242 209 355 275 357 747 792 1043 961 217 124 461 162 638 101z"/>
<path d="M2690 4013 c-20 -19 -32 -41 -35 -68 -12 -84 70 -178 140 -161 l28 7
-32 20 c-80 48 -68 170 13 139 13 -4 33 -21 45 -36 l21 -27 0 30 c0 17 -10 45
-23 64 -43 64 -107 77 -157 32z"/>
<path d="M2420 3918 c-24 -26 -26 -80 -4 -103 19 -19 51 -15 45 6 -3 8 -5 28
-5 44 -1 27 2 30 27 28 29 -2 36 14 15 35 -19 19 -55 14 -78 -10z"/>
<path d="M2303 3654 c-21 -20 -23 -24 -8 -18 11 4 38 10 59 13 51 8 61 31 12
31 -24 0 -44 -8 -63 -26z"/>
<path d="M2720 3561 c0 -5 11 -12 25 -15 15 -4 33 -21 44 -44 20 -36 20 -37
21 -9 0 33 -39 77 -70 77 -11 0 -20 -4 -20 -9z"/>
<path d="M2269 4295 c-248 -39 -546 -157 -759 -300 -337 -227 -612 -595 -734
-984 -36 -115 -78 -330 -74 -383 l3 -43 34 50 c19 28 71 97 116 155 60 78 85
120 99 165 29 97 94 243 152 342 204 348 521 608 891 734 94 32 286 136 277
150 -3 5 17 9 44 9 l49 0 36 60 35 60 -41 -1 c-23 -1 -81 -7 -128 -14z"/>
<path d="M3641 3757 c-11 -34 -11 -41 5 -58 26 -29 36 -23 28 19 -13 73 -20
80 -33 39z"/>
<path d="M3777 3738 c-3 -13 -9 -51 -13 -85 l-6 -62 42 -51 c23 -28 44 -49 46
-47 4 4 -54 258 -60 264 -2 2 -6 -6 -9 -19z"/>
<path d="M3878 3570 l4 -129 45 -68 c63 -96 157 -291 192 -400 60 -185 76
-296 75 -523 0 -172 -4 -222 -23 -310 -78 -369 -258 -682 -534 -928 -330 -294
-772 -444 -1219 -412 -697 50 -1293 541 -1481 1220 -28 100 -57 279 -57 349 0
22 -3 41 -6 41 -9 0 -125 -94 -153 -124 l-24 -26 28 -137 c37 -183 83 -322
155 -469 199 -407 536 -729 940 -897 421 -176 861 -193 1295 -51 203 67 344
141 530 279 311 231 533 543 653 915 56 174 73 284 79 501 13 440 -89 775
-346 1142 -71 101 -99 129 -87 90 2 -10 7 -45 10 -78 l6 -60 -37 103 c-21 56
-40 102 -43 102 -3 0 -4 -58 -2 -130z"/>
</g>
</svg>
